<svg width="12" height="8" viewBox="0 0 12 8" fill="none" xmlns="http://www.w3.org/2000/svg">
<path d="M0.63 8V0.566H2.198L2.59 1.364C2.618 1.34533 2.65533 1.31733 2.702 1.28C2.90733 1.14 3.06133 1.03733 3.164 0.972C3.276 0.897333 3.42533 0.813333 3.612 0.719999C3.808 0.626666 4.00867 0.561333 4.214 0.523999C4.41933 0.477333 4.648 0.454 4.9 0.454C5.86133 0.454 6.50533 0.776 6.832 1.42C7.70933 0.776 8.60067 0.454 9.506 0.454C10.9807 0.454 11.718 1.32667 11.718 3.072V8H9.758V3.044C9.758 2.708 9.68333 2.456 9.534 2.288C9.394 2.12 9.19333 2.036 8.932 2.036C8.81067 2.036 8.694 2.04067 8.582 2.05C8.47 2.05933 8.358 2.07333 8.246 2.092C8.14333 2.11067 8.04067 2.134 7.938 2.162C7.84467 2.19 7.75133 2.22733 7.658 2.274C7.56467 2.31133 7.47133 2.36267 7.378 2.428C7.294 2.484 7.20533 2.54933 7.112 2.624C7.112 2.63333 7.112 2.66133 7.112 2.708C7.12133 2.74533 7.126 2.78733 7.126 2.834C7.126 2.88067 7.126 2.92733 7.126 2.974C7.126 3.02067 7.126 3.04867 7.126 3.058V8H5.166V3.044C5.166 2.876 5.14733 2.72667 5.11 2.596C5.07267 2.46533 5.01667 2.36267 4.942 2.288C4.86733 2.204 4.77867 2.14333 4.676 2.106C4.57333 2.05933 4.46133 2.036 4.34 2.036C4.088 2.036 3.864 2.05933 3.668 2.106C3.472 2.15267 3.29467 2.22267 3.136 2.316C2.97733 2.4 2.79533 2.51667 2.59 2.666V8H0.63Z" fill="#FFFCF2"/>
</svg>
